<?xml version="1.0" standalone="no"?><svg xmlns="http://www.w3.org/2000/svg" viewBox="0 0 1440 320"><path fill="#d5d5d5" fill-opacity="1" d="M0,256L30,245.3C60,235,120,213,180,218.7C240,224,300,256,360,250.7C420,245,480,203,540,197.3C600,192,660,224,720,245.3C780,267,840,277,900,272C960,267,1020,245,1080,202.7C1140,160,1200,96,1260,101.3C1320,107,1380,181,1410,218.7L1440,256L1440,320L1410,320C1380,320,1320,320,1260,320C1200,320,1140,320,1080,320C1020,320,960,320,900,320C840,320,780,320,720,320C660,320,600,320,540,320C480,320,420,320,360,320C300,320,240,320,180,320C120,320,60,320,30,320L0,320Z"></path></svg>